%TF.GenerationSoftware,KiCad,Pcbnew,6.0.7-f9a2dced07~116~ubuntu22.04.1*%
%TF.CreationDate,2022-09-09T11:06:50-04:00*%
%TF.ProjectId,cti20-to-arm20-adapter,63746932-302d-4746-9f2d-61726d32302d,rev?*%
%TF.SameCoordinates,Original*%
%TF.FileFunction,Copper,L1,Top*%
%TF.FilePolarity,Positive*%
%FSLAX46Y46*%
G04 Gerber Fmt 4.6, Leading zero omitted, Abs format (unit mm)*
G04 Created by KiCad (PCBNEW 6.0.7-f9a2dced07~116~ubuntu22.04.1) date 2022-09-09 11:06:50*
%MOMM*%
%LPD*%
G01*
G04 APERTURE LIST*
%TA.AperFunction,SMDPad,CuDef*%
%ADD10R,3.150000X1.000000*%
%TD*%
%TA.AperFunction,ViaPad*%
%ADD11C,0.800000*%
%TD*%
%TA.AperFunction,Conductor*%
%ADD12C,0.200000*%
%TD*%
G04 APERTURE END LIST*
D10*
%TO.P,J1,1,Pin_1*%
%TO.N,/VDD*%
X103647000Y-72390000D03*
%TO.P,J1,2,Pin_2*%
%TO.N,unconnected-(J1-Pad2)*%
X108697000Y-72390000D03*
%TO.P,J1,3,Pin_3*%
%TO.N,/TRST_N*%
X103647000Y-74930000D03*
%TO.P,J1,4,Pin_4*%
%TO.N,GND*%
X108697000Y-74930000D03*
%TO.P,J1,5,Pin_5*%
%TO.N,/TDI*%
X103647000Y-77470000D03*
%TO.P,J1,6,Pin_6*%
%TO.N,GND*%
X108697000Y-77470000D03*
%TO.P,J1,7,Pin_7*%
%TO.N,/TMS*%
X103647000Y-80010000D03*
%TO.P,J1,8,Pin_8*%
%TO.N,GND*%
X108697000Y-80010000D03*
%TO.P,J1,9,Pin_9*%
%TO.N,/TCK*%
X103647000Y-82550000D03*
%TO.P,J1,10,Pin_10*%
%TO.N,GND*%
X108697000Y-82550000D03*
%TO.P,J1,11,Pin_11*%
%TO.N,/RTCK*%
X103647000Y-85090000D03*
%TO.P,J1,12,Pin_12*%
%TO.N,GND*%
X108697000Y-85090000D03*
%TO.P,J1,13,Pin_13*%
%TO.N,/TDO*%
X103647000Y-87630000D03*
%TO.P,J1,14,Pin_14*%
%TO.N,GND*%
X108697000Y-87630000D03*
%TO.P,J1,15,Pin_15*%
%TO.N,/SRST_N*%
X103647000Y-90170000D03*
%TO.P,J1,16,Pin_16*%
%TO.N,GND*%
X108697000Y-90170000D03*
%TO.P,J1,17,Pin_17*%
%TO.N,unconnected-(J1-Pad17)*%
X103647000Y-92710000D03*
%TO.P,J1,18,Pin_18*%
%TO.N,GND*%
X108697000Y-92710000D03*
%TO.P,J1,19,Pin_19*%
%TO.N,unconnected-(J1-Pad19)*%
X103647000Y-95250000D03*
%TO.P,J1,20,Pin_20*%
%TO.N,GND*%
X108697000Y-95250000D03*
%TD*%
D11*
%TO.N,/TDI*%
X110490000Y-78740000D03*
%TO.N,/VDD*%
X106172000Y-73660000D03*
%TO.N,/SRST_N*%
X106172000Y-80010000D03*
%TO.N,/TMS*%
X106172000Y-88900000D03*
%TO.N,/TRST_N*%
X101981000Y-76200000D03*
%TO.N,/TCK*%
X106172000Y-82550000D03*
%TO.N,/RTCK*%
X106172000Y-85090000D03*
%TO.N,/TDO*%
X106172000Y-87630000D03*
%TD*%
D12*
%TO.N,/TDI*%
X110490000Y-78740000D02*
X104917000Y-78740000D01*
X104917000Y-78740000D02*
X103647000Y-77470000D01*
%TO.N,/VDD*%
X106172000Y-73660000D02*
X104902000Y-72390000D01*
X104902000Y-72390000D02*
X103647000Y-72390000D01*
%TO.N,/SRST_N*%
X106172000Y-80010000D02*
X105372000Y-79210000D01*
X105372000Y-79210000D02*
X101892000Y-79210000D01*
X101892000Y-79210000D02*
X101372000Y-79730000D01*
X101372000Y-79730000D02*
X101372000Y-89434000D01*
X101372000Y-89434000D02*
X102108000Y-90170000D01*
X102108000Y-90170000D02*
X103647000Y-90170000D01*
%TO.N,/TMS*%
X106172000Y-88900000D02*
X102242000Y-88900000D01*
X102242000Y-88900000D02*
X101772000Y-88430000D01*
X101772000Y-81885000D02*
X103647000Y-80010000D01*
X101772000Y-88430000D02*
X101772000Y-81885000D01*
%TO.N,/TRST_N*%
X103251000Y-74930000D02*
X103647000Y-74930000D01*
X101981000Y-76200000D02*
X103251000Y-74930000D01*
%TO.N,/TCK*%
X106172000Y-82550000D02*
X103647000Y-82550000D01*
%TO.N,/RTCK*%
X106172000Y-85090000D02*
X103647000Y-85090000D01*
%TO.N,/TDO*%
X106172000Y-87630000D02*
X103647000Y-87630000D01*
%TD*%
%TA.AperFunction,Conductor*%
%TO.N,GND*%
G36*
X107408564Y-68959036D02*
G01*
X108535235Y-68961397D01*
X108554354Y-68962897D01*
X108561048Y-68963939D01*
X108578724Y-68966691D01*
X108598079Y-68964160D01*
X108620594Y-68963248D01*
X108914876Y-68977706D01*
X108927170Y-68978916D01*
X109247751Y-69026471D01*
X109259857Y-69028878D01*
X109574233Y-69107625D01*
X109586065Y-69111214D01*
X109891202Y-69220394D01*
X109902626Y-69225126D01*
X109941606Y-69243562D01*
X110195594Y-69363689D01*
X110206495Y-69369516D01*
X110484467Y-69536126D01*
X110494742Y-69542992D01*
X110751966Y-69733763D01*
X110755046Y-69736047D01*
X110764603Y-69743891D01*
X111004729Y-69961527D01*
X111013473Y-69970271D01*
X111231109Y-70210397D01*
X111238951Y-70219951D01*
X111424495Y-70470126D01*
X111432004Y-70480251D01*
X111438874Y-70490533D01*
X111602599Y-70763691D01*
X111605484Y-70768505D01*
X111611311Y-70779406D01*
X111673510Y-70910916D01*
X111749874Y-71072374D01*
X111754606Y-71083798D01*
X111863786Y-71388935D01*
X111867375Y-71400765D01*
X111946122Y-71715143D01*
X111948529Y-71727249D01*
X111966038Y-71845283D01*
X111996083Y-72047825D01*
X111997294Y-72060124D01*
X112011255Y-72344284D01*
X112011390Y-72347034D01*
X112010042Y-72372598D01*
X112008309Y-72383724D01*
X112009474Y-72392630D01*
X112012436Y-72415283D01*
X112013500Y-72431621D01*
X112013500Y-95200633D01*
X112012000Y-95220018D01*
X112009690Y-95234851D01*
X112009690Y-95234855D01*
X112008309Y-95243724D01*
X112010840Y-95263079D01*
X112011752Y-95285594D01*
X112000132Y-95522115D01*
X111997295Y-95579870D01*
X111996084Y-95592170D01*
X111948532Y-95912738D01*
X111948531Y-95912742D01*
X111946122Y-95924857D01*
X111878508Y-96194786D01*
X111867375Y-96239233D01*
X111863786Y-96251065D01*
X111754606Y-96556202D01*
X111749874Y-96567626D01*
X111653261Y-96771899D01*
X111611313Y-96860590D01*
X111605484Y-96871495D01*
X111438874Y-97149467D01*
X111432004Y-97159749D01*
X111238953Y-97420046D01*
X111231109Y-97429603D01*
X111013473Y-97669729D01*
X111004729Y-97678473D01*
X110764603Y-97896109D01*
X110755049Y-97903951D01*
X110494742Y-98097008D01*
X110484467Y-98103874D01*
X110206495Y-98270484D01*
X110195594Y-98276311D01*
X110064084Y-98338510D01*
X109902626Y-98414874D01*
X109891202Y-98419606D01*
X109586065Y-98528786D01*
X109574235Y-98532375D01*
X109259857Y-98611122D01*
X109247751Y-98613529D01*
X108927170Y-98661084D01*
X108914876Y-98662294D01*
X108627962Y-98676390D01*
X108602402Y-98675042D01*
X108591276Y-98673309D01*
X108559714Y-98677436D01*
X108543379Y-98678500D01*
X103813432Y-98678500D01*
X103794046Y-98677000D01*
X103779212Y-98674690D01*
X103779211Y-98674690D01*
X103770342Y-98673309D01*
X103761439Y-98674473D01*
X103761438Y-98674473D01*
X103750990Y-98675839D01*
X103728473Y-98676751D01*
X103434196Y-98662292D01*
X103421898Y-98661080D01*
X103181860Y-98625472D01*
X103101332Y-98613526D01*
X103089204Y-98611114D01*
X102774831Y-98532364D01*
X102762999Y-98528774D01*
X102570651Y-98459950D01*
X102457870Y-98419595D01*
X102446456Y-98414867D01*
X102153514Y-98276313D01*
X102153491Y-98276302D01*
X102142586Y-98270473D01*
X101864624Y-98103867D01*
X101854343Y-98096998D01*
X101594055Y-97903953D01*
X101594034Y-97903937D01*
X101584488Y-97896103D01*
X101344353Y-97678456D01*
X101335611Y-97669713D01*
X101117981Y-97429592D01*
X101110137Y-97420034D01*
X100917086Y-97159733D01*
X100910216Y-97149451D01*
X100743614Y-96871489D01*
X100737785Y-96860585D01*
X100599223Y-96567618D01*
X100594491Y-96556194D01*
X100485312Y-96251059D01*
X100481723Y-96239226D01*
X100402981Y-95924865D01*
X100400569Y-95912738D01*
X100383569Y-95798134D01*
X101563500Y-95798134D01*
X101570255Y-95860316D01*
X101621385Y-95996705D01*
X101708739Y-96113261D01*
X101825295Y-96200615D01*
X101961684Y-96251745D01*
X102023866Y-96258500D01*
X105270134Y-96258500D01*
X105332316Y-96251745D01*
X105468705Y-96200615D01*
X105585261Y-96113261D01*
X105672615Y-95996705D01*
X105723745Y-95860316D01*
X105730500Y-95798134D01*
X105730500Y-95794669D01*
X106614001Y-95794669D01*
X106614371Y-95801490D01*
X106619895Y-95852352D01*
X106623521Y-95867604D01*
X106668676Y-95988054D01*
X106677214Y-96003649D01*
X106753715Y-96105724D01*
X106766276Y-96118285D01*
X106868351Y-96194786D01*
X106883946Y-96203324D01*
X107004394Y-96248478D01*
X107019649Y-96252105D01*
X107070514Y-96257631D01*
X107077328Y-96258000D01*
X108424885Y-96258000D01*
X108440124Y-96253525D01*
X108441329Y-96252135D01*
X108443000Y-96244452D01*
X108443000Y-96239884D01*
X108951000Y-96239884D01*
X108955475Y-96255123D01*
X108956865Y-96256328D01*
X108964548Y-96257999D01*
X110316669Y-96257999D01*
X110323490Y-96257629D01*
X110374352Y-96252105D01*
X110389604Y-96248479D01*
X110510054Y-96203324D01*
X110525649Y-96194786D01*
X110627724Y-96118285D01*
X110640285Y-96105724D01*
X110716786Y-96003649D01*
X110725324Y-95988054D01*
X110770478Y-95867606D01*
X110774105Y-95852351D01*
X110779631Y-95801486D01*
X110780000Y-95794672D01*
X110780000Y-95522115D01*
X110775525Y-95506876D01*
X110774135Y-95505671D01*
X110766452Y-95504000D01*
X108969115Y-95504000D01*
X108953876Y-95508475D01*
X108952671Y-95509865D01*
X108951000Y-95517548D01*
X108951000Y-96239884D01*
X108443000Y-96239884D01*
X108443000Y-95522115D01*
X108438525Y-95506876D01*
X108437135Y-95505671D01*
X108429452Y-95504000D01*
X106632116Y-95504000D01*
X106616877Y-95508475D01*
X106615672Y-95509865D01*
X106614001Y-95517548D01*
X106614001Y-95794669D01*
X105730500Y-95794669D01*
X105730500Y-94977885D01*
X106614000Y-94977885D01*
X106618475Y-94993124D01*
X106619865Y-94994329D01*
X106627548Y-94996000D01*
X108424885Y-94996000D01*
X108440124Y-94991525D01*
X108441329Y-94990135D01*
X108443000Y-94982452D01*
X108443000Y-94977885D01*
X108951000Y-94977885D01*
X108955475Y-94993124D01*
X108956865Y-94994329D01*
X108964548Y-94996000D01*
X110761884Y-94996000D01*
X110777123Y-94991525D01*
X110778328Y-94990135D01*
X110779999Y-94982452D01*
X110779999Y-94705331D01*
X110779629Y-94698510D01*
X110774105Y-94647648D01*
X110770479Y-94632396D01*
X110725324Y-94511946D01*
X110716786Y-94496351D01*
X110640285Y-94394276D01*
X110627724Y-94381715D01*
X110525649Y-94305214D01*
X110510054Y-94296676D01*
X110389606Y-94251522D01*
X110374351Y-94247895D01*
X110323486Y-94242369D01*
X110316672Y-94242000D01*
X108969115Y-94242000D01*
X108953876Y-94246475D01*
X108952671Y-94247865D01*
X108951000Y-94255548D01*
X108951000Y-94977885D01*
X108443000Y-94977885D01*
X108443000Y-94260116D01*
X108438525Y-94244877D01*
X108437135Y-94243672D01*
X108429452Y-94242001D01*
X107077331Y-94242001D01*
X107070510Y-94242371D01*
X107019648Y-94247895D01*
X107004396Y-94251521D01*
X106883946Y-94296676D01*
X106868351Y-94305214D01*
X106766276Y-94381715D01*
X106753715Y-94394276D01*
X106677214Y-94496351D01*
X106668676Y-94511946D01*
X106623522Y-94632394D01*
X106619895Y-94647649D01*
X106614369Y-94698514D01*
X106614000Y-94705328D01*
X106614000Y-94977885D01*
X105730500Y-94977885D01*
X105730500Y-94701866D01*
X105723745Y-94639684D01*
X105672615Y-94503295D01*
X105585261Y-94386739D01*
X105468705Y-94299385D01*
X105332316Y-94248255D01*
X105270134Y-94241500D01*
X102023866Y-94241500D01*
X101961684Y-94248255D01*
X101825295Y-94299385D01*
X101708739Y-94386739D01*
X101621385Y-94503295D01*
X101570255Y-94639684D01*
X101563500Y-94701866D01*
X101563500Y-95798134D01*
X100383569Y-95798134D01*
X100359788Y-95637818D01*
X100353016Y-95592168D01*
X100351805Y-95579867D01*
X100348220Y-95506876D01*
X100337886Y-95296517D01*
X100339479Y-95269439D01*
X100339829Y-95267355D01*
X100340637Y-95262552D01*
X100340790Y-95250000D01*
X100336813Y-95222230D01*
X100335540Y-95204425D01*
X100335447Y-94994329D01*
X100334679Y-93258134D01*
X101563500Y-93258134D01*
X101570255Y-93320316D01*
X101621385Y-93456705D01*
X101708739Y-93573261D01*
X101825295Y-93660615D01*
X101961684Y-93711745D01*
X102023866Y-93718500D01*
X105270134Y-93718500D01*
X105332316Y-93711745D01*
X105468705Y-93660615D01*
X105585261Y-93573261D01*
X105672615Y-93456705D01*
X105723745Y-93320316D01*
X105730500Y-93258134D01*
X105730500Y-93254669D01*
X106614001Y-93254669D01*
X106614371Y-93261490D01*
X106619895Y-93312352D01*
X106623521Y-93327604D01*
X106668676Y-93448054D01*
X106677214Y-93463649D01*
X106753715Y-93565724D01*
X106766276Y-93578285D01*
X106868351Y-93654786D01*
X106883946Y-93663324D01*
X107004394Y-93708478D01*
X107019649Y-93712105D01*
X107070514Y-93717631D01*
X107077328Y-93718000D01*
X108424885Y-93718000D01*
X108440124Y-93713525D01*
X108441329Y-93712135D01*
X108443000Y-93704452D01*
X108443000Y-93699884D01*
X108951000Y-93699884D01*
X108955475Y-93715123D01*
X108956865Y-93716328D01*
X108964548Y-93717999D01*
X110316669Y-93717999D01*
X110323490Y-93717629D01*
X110374352Y-93712105D01*
X110389604Y-93708479D01*
X110510054Y-93663324D01*
X110525649Y-93654786D01*
X110627724Y-93578285D01*
X110640285Y-93565724D01*
X110716786Y-93463649D01*
X110725324Y-93448054D01*
X110770478Y-93327606D01*
X110774105Y-93312351D01*
X110779631Y-93261486D01*
X110780000Y-93254672D01*
X110780000Y-92982115D01*
X110775525Y-92966876D01*
X110774135Y-92965671D01*
X110766452Y-92964000D01*
X108969115Y-92964000D01*
X108953876Y-92968475D01*
X108952671Y-92969865D01*
X108951000Y-92977548D01*
X108951000Y-93699884D01*
X108443000Y-93699884D01*
X108443000Y-92982115D01*
X108438525Y-92966876D01*
X108437135Y-92965671D01*
X108429452Y-92964000D01*
X106632116Y-92964000D01*
X106616877Y-92968475D01*
X106615672Y-92969865D01*
X106614001Y-92977548D01*
X106614001Y-93254669D01*
X105730500Y-93254669D01*
X105730500Y-92437885D01*
X106614000Y-92437885D01*
X106618475Y-92453124D01*
X106619865Y-92454329D01*
X106627548Y-92456000D01*
X108424885Y-92456000D01*
X108440124Y-92451525D01*
X108441329Y-92450135D01*
X108443000Y-92442452D01*
X108443000Y-92437885D01*
X108951000Y-92437885D01*
X108955475Y-92453124D01*
X108956865Y-92454329D01*
X108964548Y-92456000D01*
X110761884Y-92456000D01*
X110777123Y-92451525D01*
X110778328Y-92450135D01*
X110779999Y-92442452D01*
X110779999Y-92165331D01*
X110779629Y-92158510D01*
X110774105Y-92107648D01*
X110770479Y-92092396D01*
X110725324Y-91971946D01*
X110716786Y-91956351D01*
X110640285Y-91854276D01*
X110627724Y-91841715D01*
X110525649Y-91765214D01*
X110510054Y-91756676D01*
X110389606Y-91711522D01*
X110374351Y-91707895D01*
X110323486Y-91702369D01*
X110316672Y-91702000D01*
X108969115Y-91702000D01*
X108953876Y-91706475D01*
X108952671Y-91707865D01*
X108951000Y-91715548D01*
X108951000Y-92437885D01*
X108443000Y-92437885D01*
X108443000Y-91720116D01*
X108438525Y-91704877D01*
X108437135Y-91703672D01*
X108429452Y-91702001D01*
X107077331Y-91702001D01*
X107070510Y-91702371D01*
X107019648Y-91707895D01*
X107004396Y-91711521D01*
X106883946Y-91756676D01*
X106868351Y-91765214D01*
X106766276Y-91841715D01*
X106753715Y-91854276D01*
X106677214Y-91956351D01*
X106668676Y-91971946D01*
X106623522Y-92092394D01*
X106619895Y-92107649D01*
X106614369Y-92158514D01*
X106614000Y-92165328D01*
X106614000Y-92437885D01*
X105730500Y-92437885D01*
X105730500Y-92161866D01*
X105723745Y-92099684D01*
X105672615Y-91963295D01*
X105585261Y-91846739D01*
X105468705Y-91759385D01*
X105332316Y-91708255D01*
X105270134Y-91701500D01*
X102023866Y-91701500D01*
X101961684Y-91708255D01*
X101825295Y-91759385D01*
X101708739Y-91846739D01*
X101621385Y-91963295D01*
X101570255Y-92099684D01*
X101563500Y-92161866D01*
X101563500Y-93258134D01*
X100334679Y-93258134D01*
X100332987Y-89434000D01*
X100758250Y-89434000D01*
X100763500Y-89473880D01*
X100763500Y-89473885D01*
X100774095Y-89554364D01*
X100779162Y-89592851D01*
X100840476Y-89740876D01*
X100845503Y-89747427D01*
X100845504Y-89747429D01*
X100913520Y-89836069D01*
X100913526Y-89836075D01*
X100938013Y-89867987D01*
X100944568Y-89873017D01*
X100963379Y-89887452D01*
X100975770Y-89898319D01*
X101526595Y-90449144D01*
X101560621Y-90511456D01*
X101563500Y-90538239D01*
X101563500Y-90718134D01*
X101570255Y-90780316D01*
X101621385Y-90916705D01*
X101708739Y-91033261D01*
X101825295Y-91120615D01*
X101961684Y-91171745D01*
X102023866Y-91178500D01*
X105270134Y-91178500D01*
X105332316Y-91171745D01*
X105468705Y-91120615D01*
X105585261Y-91033261D01*
X105672615Y-90916705D01*
X105723745Y-90780316D01*
X105730500Y-90718134D01*
X105730500Y-90714669D01*
X106614001Y-90714669D01*
X106614371Y-90721490D01*
X106619895Y-90772352D01*
X106623521Y-90787604D01*
X106668676Y-90908054D01*
X106677214Y-90923649D01*
X106753715Y-91025724D01*
X106766276Y-91038285D01*
X106868351Y-91114786D01*
X106883946Y-91123324D01*
X107004394Y-91168478D01*
X107019649Y-91172105D01*
X107070514Y-91177631D01*
X107077328Y-91178000D01*
X108424885Y-91178000D01*
X108440124Y-91173525D01*
X108441329Y-91172135D01*
X108443000Y-91164452D01*
X108443000Y-91159884D01*
X108951000Y-91159884D01*
X108955475Y-91175123D01*
X108956865Y-91176328D01*
X108964548Y-91177999D01*
X110316669Y-91177999D01*
X110323490Y-91177629D01*
X110374352Y-91172105D01*
X110389604Y-91168479D01*
X110510054Y-91123324D01*
X110525649Y-91114786D01*
X110627724Y-91038285D01*
X110640285Y-91025724D01*
X110716786Y-90923649D01*
X110725324Y-90908054D01*
X110770478Y-90787606D01*
X110774105Y-90772351D01*
X110779631Y-90721486D01*
X110780000Y-90714672D01*
X110780000Y-90442115D01*
X110775525Y-90426876D01*
X110774135Y-90425671D01*
X110766452Y-90424000D01*
X108969115Y-90424000D01*
X108953876Y-90428475D01*
X108952671Y-90429865D01*
X108951000Y-90437548D01*
X108951000Y-91159884D01*
X108443000Y-91159884D01*
X108443000Y-90442115D01*
X108438525Y-90426876D01*
X108437135Y-90425671D01*
X108429452Y-90424000D01*
X106632116Y-90424000D01*
X106616877Y-90428475D01*
X106615672Y-90429865D01*
X106614001Y-90437548D01*
X106614001Y-90714669D01*
X105730500Y-90714669D01*
X105730500Y-89889762D01*
X105750502Y-89821641D01*
X105804158Y-89775148D01*
X105874432Y-89765044D01*
X105888786Y-89768382D01*
X105889712Y-89768794D01*
X105896168Y-89770166D01*
X105896167Y-89770166D01*
X106070056Y-89807128D01*
X106070061Y-89807128D01*
X106076513Y-89808500D01*
X106267487Y-89808500D01*
X106273939Y-89807128D01*
X106273944Y-89807128D01*
X106447833Y-89770166D01*
X106447832Y-89770166D01*
X106449809Y-89769746D01*
X106449811Y-89769746D01*
X106454288Y-89768794D01*
X106454462Y-89769613D01*
X106520028Y-89767738D01*
X106580827Y-89804398D01*
X106612154Y-89868110D01*
X106614000Y-89889599D01*
X106614000Y-89897885D01*
X106618475Y-89913124D01*
X106619865Y-89914329D01*
X106627548Y-89916000D01*
X108424885Y-89916000D01*
X108440124Y-89911525D01*
X108441329Y-89910135D01*
X108443000Y-89902452D01*
X108443000Y-89897885D01*
X108951000Y-89897885D01*
X108955475Y-89913124D01*
X108956865Y-89914329D01*
X108964548Y-89916000D01*
X110761884Y-89916000D01*
X110777123Y-89911525D01*
X110778328Y-89910135D01*
X110779999Y-89902452D01*
X110779999Y-89625331D01*
X110779629Y-89618510D01*
X110774105Y-89567648D01*
X110770479Y-89552396D01*
X110725324Y-89431946D01*
X110716786Y-89416351D01*
X110640285Y-89314276D01*
X110627724Y-89301715D01*
X110525649Y-89225214D01*
X110510054Y-89216676D01*
X110389606Y-89171522D01*
X110374351Y-89167895D01*
X110323486Y-89162369D01*
X110316672Y-89162000D01*
X108969115Y-89162000D01*
X108953876Y-89166475D01*
X108952671Y-89167865D01*
X108951000Y-89175548D01*
X108951000Y-89897885D01*
X108443000Y-89897885D01*
X108443000Y-89180116D01*
X108438525Y-89164877D01*
X108437135Y-89163672D01*
X108429452Y-89162001D01*
X107197904Y-89162001D01*
X107129783Y-89141999D01*
X107083290Y-89088343D01*
X107072594Y-89022830D01*
X107084814Y-88906564D01*
X107085504Y-88900000D01*
X107072594Y-88777170D01*
X107085366Y-88707332D01*
X107133868Y-88655486D01*
X107197904Y-88638000D01*
X108424885Y-88638000D01*
X108440124Y-88633525D01*
X108441329Y-88632135D01*
X108443000Y-88624452D01*
X108443000Y-88619884D01*
X108951000Y-88619884D01*
X108955475Y-88635123D01*
X108956865Y-88636328D01*
X108964548Y-88637999D01*
X110316669Y-88637999D01*
X110323490Y-88637629D01*
X110374352Y-88632105D01*
X110389604Y-88628479D01*
X110510054Y-88583324D01*
X110525649Y-88574786D01*
X110627724Y-88498285D01*
X110640285Y-88485724D01*
X110716786Y-88383649D01*
X110725324Y-88368054D01*
X110770478Y-88247606D01*
X110774105Y-88232351D01*
X110779631Y-88181486D01*
X110780000Y-88174672D01*
X110780000Y-87902115D01*
X110775525Y-87886876D01*
X110774135Y-87885671D01*
X110766452Y-87884000D01*
X108969115Y-87884000D01*
X108953876Y-87888475D01*
X108952671Y-87889865D01*
X108951000Y-87897548D01*
X108951000Y-88619884D01*
X108443000Y-88619884D01*
X108443000Y-87357885D01*
X108951000Y-87357885D01*
X108955475Y-87373124D01*
X108956865Y-87374329D01*
X108964548Y-87376000D01*
X110761884Y-87376000D01*
X110777123Y-87371525D01*
X110778328Y-87370135D01*
X110779999Y-87362452D01*
X110779999Y-87085331D01*
X110779629Y-87078510D01*
X110774105Y-87027648D01*
X110770479Y-87012396D01*
X110725324Y-86891946D01*
X110716786Y-86876351D01*
X110640285Y-86774276D01*
X110627724Y-86761715D01*
X110525649Y-86685214D01*
X110510054Y-86676676D01*
X110389606Y-86631522D01*
X110374351Y-86627895D01*
X110323486Y-86622369D01*
X110316672Y-86622000D01*
X108969115Y-86622000D01*
X108953876Y-86626475D01*
X108952671Y-86627865D01*
X108951000Y-86635548D01*
X108951000Y-87357885D01*
X108443000Y-87357885D01*
X108443000Y-86640116D01*
X108438525Y-86624877D01*
X108437135Y-86623672D01*
X108429452Y-86622001D01*
X107077331Y-86622001D01*
X107070510Y-86622371D01*
X107019648Y-86627895D01*
X107004396Y-86631521D01*
X106883946Y-86676676D01*
X106868351Y-86685214D01*
X106766276Y-86761715D01*
X106753714Y-86774277D01*
X106746411Y-86784021D01*
X106689551Y-86826534D01*
X106618732Y-86831558D01*
X106594338Y-86823560D01*
X106460319Y-86763891D01*
X106460318Y-86763891D01*
X106454288Y-86761206D01*
X106360887Y-86741353D01*
X106273944Y-86722872D01*
X106273939Y-86722872D01*
X106267487Y-86721500D01*
X106076513Y-86721500D01*
X106070061Y-86722872D01*
X106070056Y-86722872D01*
X105983113Y-86741353D01*
X105889712Y-86761206D01*
X105883682Y-86763891D01*
X105883681Y-86763891D01*
X105861158Y-86773919D01*
X105750129Y-86823352D01*
X105679763Y-86832786D01*
X105615466Y-86802680D01*
X105598055Y-86783810D01*
X105590642Y-86773919D01*
X105585261Y-86766739D01*
X105468705Y-86679385D01*
X105332316Y-86628255D01*
X105270134Y-86621500D01*
X102506500Y-86621500D01*
X102438379Y-86601498D01*
X102391886Y-86547842D01*
X102380500Y-86495500D01*
X102380500Y-86224500D01*
X102400502Y-86156379D01*
X102454158Y-86109886D01*
X102506500Y-86098500D01*
X105270134Y-86098500D01*
X105332316Y-86091745D01*
X105468705Y-86040615D01*
X105585261Y-85953261D01*
X105598055Y-85936190D01*
X105654914Y-85893675D01*
X105725733Y-85888649D01*
X105750127Y-85896647D01*
X105838468Y-85935979D01*
X105877285Y-85953261D01*
X105889712Y-85958794D01*
X105983112Y-85978647D01*
X106070056Y-85997128D01*
X106070061Y-85997128D01*
X106076513Y-85998500D01*
X106267487Y-85998500D01*
X106273939Y-85997128D01*
X106273944Y-85997128D01*
X106360888Y-85978647D01*
X106454288Y-85958794D01*
X106466716Y-85953261D01*
X106594338Y-85896440D01*
X106664705Y-85887006D01*
X106729002Y-85917113D01*
X106746411Y-85935979D01*
X106753714Y-85945723D01*
X106766276Y-85958285D01*
X106868351Y-86034786D01*
X106883946Y-86043324D01*
X107004394Y-86088478D01*
X107019649Y-86092105D01*
X107070514Y-86097631D01*
X107077328Y-86098000D01*
X108424885Y-86098000D01*
X108440124Y-86093525D01*
X108441329Y-86092135D01*
X108443000Y-86084452D01*
X108443000Y-86079884D01*
X108951000Y-86079884D01*
X108955475Y-86095123D01*
X108956865Y-86096328D01*
X108964548Y-86097999D01*
X110316669Y-86097999D01*
X110323490Y-86097629D01*
X110374352Y-86092105D01*
X110389604Y-86088479D01*
X110510054Y-86043324D01*
X110525649Y-86034786D01*
X110627724Y-85958285D01*
X110640285Y-85945724D01*
X110716786Y-85843649D01*
X110725324Y-85828054D01*
X110770478Y-85707606D01*
X110774105Y-85692351D01*
X110779631Y-85641486D01*
X110780000Y-85634672D01*
X110780000Y-85362115D01*
X110775525Y-85346876D01*
X110774135Y-85345671D01*
X110766452Y-85344000D01*
X108969115Y-85344000D01*
X108953876Y-85348475D01*
X108952671Y-85349865D01*
X108951000Y-85357548D01*
X108951000Y-86079884D01*
X108443000Y-86079884D01*
X108443000Y-84817885D01*
X108951000Y-84817885D01*
X108955475Y-84833124D01*
X108956865Y-84834329D01*
X108964548Y-84836000D01*
X110761884Y-84836000D01*
X110777123Y-84831525D01*
X110778328Y-84830135D01*
X110779999Y-84822452D01*
X110779999Y-84545331D01*
X110779629Y-84538510D01*
X110774105Y-84487648D01*
X110770479Y-84472396D01*
X110725324Y-84351946D01*
X110716786Y-84336351D01*
X110640285Y-84234276D01*
X110627724Y-84221715D01*
X110525649Y-84145214D01*
X110510054Y-84136676D01*
X110389606Y-84091522D01*
X110374351Y-84087895D01*
X110323486Y-84082369D01*
X110316672Y-84082000D01*
X108969115Y-84082000D01*
X108953876Y-84086475D01*
X108952671Y-84087865D01*
X108951000Y-84095548D01*
X108951000Y-84817885D01*
X108443000Y-84817885D01*
X108443000Y-84100116D01*
X108438525Y-84084877D01*
X108437135Y-84083672D01*
X108429452Y-84082001D01*
X107077331Y-84082001D01*
X107070510Y-84082371D01*
X107019648Y-84087895D01*
X107004396Y-84091521D01*
X106883946Y-84136676D01*
X106868351Y-84145214D01*
X106766276Y-84221715D01*
X106753714Y-84234277D01*
X106746411Y-84244021D01*
X106689551Y-84286534D01*
X106618732Y-84291558D01*
X106594338Y-84283560D01*
X106460319Y-84223891D01*
X106460318Y-84223891D01*
X106454288Y-84221206D01*
X106360888Y-84201353D01*
X106273944Y-84182872D01*
X106273939Y-84182872D01*
X106267487Y-84181500D01*
X106076513Y-84181500D01*
X106070061Y-84182872D01*
X106070056Y-84182872D01*
X105983112Y-84201353D01*
X105889712Y-84221206D01*
X105883682Y-84223891D01*
X105883681Y-84223891D01*
X105861158Y-84233919D01*
X105750129Y-84283352D01*
X105679763Y-84292786D01*
X105615466Y-84262680D01*
X105598055Y-84243810D01*
X105590642Y-84233919D01*
X105585261Y-84226739D01*
X105468705Y-84139385D01*
X105332316Y-84088255D01*
X105270134Y-84081500D01*
X102506500Y-84081500D01*
X102438379Y-84061498D01*
X102391886Y-84007842D01*
X102380500Y-83955500D01*
X102380500Y-83684500D01*
X102400502Y-83616379D01*
X102454158Y-83569886D01*
X102506500Y-83558500D01*
X105270134Y-83558500D01*
X105332316Y-83551745D01*
X105468705Y-83500615D01*
X105585261Y-83413261D01*
X105598055Y-83396190D01*
X105654914Y-83353675D01*
X105725733Y-83348649D01*
X105750127Y-83356647D01*
X105838468Y-83395979D01*
X105877285Y-83413261D01*
X105889712Y-83418794D01*
X105983112Y-83438647D01*
X106070056Y-83457128D01*
X106070061Y-83457128D01*
X106076513Y-83458500D01*
X106267487Y-83458500D01*
X106273939Y-83457128D01*
X106273944Y-83457128D01*
X106360888Y-83438647D01*
X106454288Y-83418794D01*
X106466716Y-83413261D01*
X106594338Y-83356440D01*
X106664705Y-83347006D01*
X106729002Y-83377113D01*
X106746411Y-83395979D01*
X106753714Y-83405723D01*
X106766276Y-83418285D01*
X106868351Y-83494786D01*
X106883946Y-83503324D01*
X107004394Y-83548478D01*
X107019649Y-83552105D01*
X107070514Y-83557631D01*
X107077328Y-83558000D01*
X108424885Y-83558000D01*
X108440124Y-83553525D01*
X108441329Y-83552135D01*
X108443000Y-83544452D01*
X108443000Y-83539884D01*
X108951000Y-83539884D01*
X108955475Y-83555123D01*
X108956865Y-83556328D01*
X108964548Y-83557999D01*
X110316669Y-83557999D01*
X110323490Y-83557629D01*
X110374352Y-83552105D01*
X110389604Y-83548479D01*
X110510054Y-83503324D01*
X110525649Y-83494786D01*
X110627724Y-83418285D01*
X110640285Y-83405724D01*
X110716786Y-83303649D01*
X110725324Y-83288054D01*
X110770478Y-83167606D01*
X110774105Y-83152351D01*
X110779631Y-83101486D01*
X110780000Y-83094672D01*
X110780000Y-82822115D01*
X110775525Y-82806876D01*
X110774135Y-82805671D01*
X110766452Y-82804000D01*
X108969115Y-82804000D01*
X108953876Y-82808475D01*
X108952671Y-82809865D01*
X108951000Y-82817548D01*
X108951000Y-83539884D01*
X108443000Y-83539884D01*
X108443000Y-82277885D01*
X108951000Y-82277885D01*
X108955475Y-82293124D01*
X108956865Y-82294329D01*
X108964548Y-82296000D01*
X110761884Y-82296000D01*
X110777123Y-82291525D01*
X110778328Y-82290135D01*
X110779999Y-82282452D01*
X110779999Y-82005331D01*
X110779629Y-81998510D01*
X110774105Y-81947648D01*
X110770479Y-81932396D01*
X110725324Y-81811946D01*
X110716786Y-81796351D01*
X110640285Y-81694276D01*
X110627724Y-81681715D01*
X110525649Y-81605214D01*
X110510054Y-81596676D01*
X110389606Y-81551522D01*
X110374351Y-81547895D01*
X110323486Y-81542369D01*
X110316672Y-81542000D01*
X108969115Y-81542000D01*
X108953876Y-81546475D01*
X108952671Y-81547865D01*
X108951000Y-81555548D01*
X108951000Y-82277885D01*
X108443000Y-82277885D01*
X108443000Y-81560116D01*
X108438525Y-81544877D01*
X108437135Y-81543672D01*
X108429452Y-81542001D01*
X107077331Y-81542001D01*
X107070510Y-81542371D01*
X107019648Y-81547895D01*
X107004396Y-81551521D01*
X106883946Y-81596676D01*
X106868351Y-81605214D01*
X106766276Y-81681715D01*
X106753714Y-81694277D01*
X106746411Y-81704021D01*
X106689551Y-81746534D01*
X106618732Y-81751558D01*
X106594338Y-81743560D01*
X106460319Y-81683891D01*
X106460318Y-81683891D01*
X106454288Y-81681206D01*
X106360888Y-81661353D01*
X106273944Y-81642872D01*
X106273939Y-81642872D01*
X106267487Y-81641500D01*
X106076513Y-81641500D01*
X106070061Y-81642872D01*
X106070056Y-81642872D01*
X105983112Y-81661353D01*
X105889712Y-81681206D01*
X105883682Y-81683891D01*
X105883681Y-81683891D01*
X105861158Y-81693919D01*
X105750129Y-81743352D01*
X105679763Y-81752786D01*
X105615466Y-81722680D01*
X105598055Y-81703810D01*
X105590642Y-81693919D01*
X105585261Y-81686739D01*
X105468705Y-81599385D01*
X105332316Y-81548255D01*
X105270134Y-81541500D01*
X103280239Y-81541500D01*
X103212118Y-81521498D01*
X103165625Y-81467842D01*
X103155521Y-81397568D01*
X103185015Y-81332988D01*
X103191144Y-81326405D01*
X103462144Y-81055405D01*
X103524456Y-81021379D01*
X103551239Y-81018500D01*
X105270134Y-81018500D01*
X105332316Y-81011745D01*
X105468705Y-80960615D01*
X105585261Y-80873261D01*
X105598055Y-80856190D01*
X105654914Y-80813675D01*
X105725733Y-80808649D01*
X105750127Y-80816647D01*
X105838468Y-80855979D01*
X105877285Y-80873261D01*
X105889712Y-80878794D01*
X105983112Y-80898647D01*
X106070056Y-80917128D01*
X106070061Y-80917128D01*
X106076513Y-80918500D01*
X106267487Y-80918500D01*
X106273939Y-80917128D01*
X106273944Y-80917128D01*
X106360888Y-80898647D01*
X106454288Y-80878794D01*
X106466716Y-80873261D01*
X106594338Y-80816440D01*
X106664705Y-80807006D01*
X106729002Y-80837113D01*
X106746411Y-80855979D01*
X106753714Y-80865723D01*
X106766276Y-80878285D01*
X106868351Y-80954786D01*
X106883946Y-80963324D01*
X107004394Y-81008478D01*
X107019649Y-81012105D01*
X107070514Y-81017631D01*
X107077328Y-81018000D01*
X108424885Y-81018000D01*
X108440124Y-81013525D01*
X108441329Y-81012135D01*
X108443000Y-81004452D01*
X108443000Y-80999884D01*
X108951000Y-80999884D01*
X108955475Y-81015123D01*
X108956865Y-81016328D01*
X108964548Y-81017999D01*
X110316669Y-81017999D01*
X110323490Y-81017629D01*
X110374352Y-81012105D01*
X110389604Y-81008479D01*
X110510054Y-80963324D01*
X110525649Y-80954786D01*
X110627724Y-80878285D01*
X110640285Y-80865724D01*
X110716786Y-80763649D01*
X110725324Y-80748054D01*
X110770478Y-80627606D01*
X110774105Y-80612351D01*
X110779631Y-80561486D01*
X110780000Y-80554672D01*
X110780000Y-80282115D01*
X110775525Y-80266876D01*
X110774135Y-80265671D01*
X110766452Y-80264000D01*
X108969115Y-80264000D01*
X108953876Y-80268475D01*
X108952671Y-80269865D01*
X108951000Y-80277548D01*
X108951000Y-80999884D01*
X108443000Y-80999884D01*
X108443000Y-79882000D01*
X108463002Y-79813879D01*
X108516658Y-79767386D01*
X108569000Y-79756000D01*
X110761884Y-79756000D01*
X110777123Y-79751525D01*
X110778328Y-79750135D01*
X110779999Y-79742452D01*
X110779999Y-79687187D01*
X110800001Y-79619066D01*
X110854750Y-79572080D01*
X110940722Y-79533803D01*
X110940724Y-79533802D01*
X110946752Y-79531118D01*
X111101253Y-79418866D01*
X111183140Y-79327921D01*
X111224621Y-79281852D01*
X111224622Y-79281851D01*
X111229040Y-79276944D01*
X111324527Y-79111556D01*
X111383542Y-78929928D01*
X111403504Y-78740000D01*
X111388947Y-78601500D01*
X111384232Y-78556635D01*
X111384232Y-78556633D01*
X111383542Y-78550072D01*
X111324527Y-78368444D01*
X111229040Y-78203056D01*
X111101253Y-78061134D01*
X110946752Y-77948882D01*
X110854750Y-77907920D01*
X110800655Y-77861941D01*
X110780000Y-77792814D01*
X110780000Y-77742115D01*
X110775525Y-77726876D01*
X110774135Y-77725671D01*
X110766452Y-77724000D01*
X106632116Y-77724000D01*
X106616877Y-77728475D01*
X106615672Y-77729865D01*
X106614001Y-77737548D01*
X106614001Y-78005500D01*
X106593999Y-78073621D01*
X106540343Y-78120114D01*
X106488001Y-78131500D01*
X105856500Y-78131500D01*
X105788379Y-78111498D01*
X105741886Y-78057842D01*
X105730500Y-78005500D01*
X105730500Y-77197885D01*
X106614000Y-77197885D01*
X106618475Y-77213124D01*
X106619865Y-77214329D01*
X106627548Y-77216000D01*
X108424885Y-77216000D01*
X108440124Y-77211525D01*
X108441329Y-77210135D01*
X108443000Y-77202452D01*
X108443000Y-77197885D01*
X108951000Y-77197885D01*
X108955475Y-77213124D01*
X108956865Y-77214329D01*
X108964548Y-77216000D01*
X110761884Y-77216000D01*
X110777123Y-77211525D01*
X110778328Y-77210135D01*
X110779999Y-77202452D01*
X110779999Y-76925331D01*
X110779629Y-76918510D01*
X110774105Y-76867648D01*
X110770479Y-76852396D01*
X110725324Y-76731946D01*
X110716786Y-76716351D01*
X110640285Y-76614276D01*
X110627724Y-76601715D01*
X110525649Y-76525214D01*
X110510054Y-76516676D01*
X110389606Y-76471522D01*
X110374351Y-76467895D01*
X110323486Y-76462369D01*
X110316672Y-76462000D01*
X108969115Y-76462000D01*
X108953876Y-76466475D01*
X108952671Y-76467865D01*
X108951000Y-76475548D01*
X108951000Y-77197885D01*
X108443000Y-77197885D01*
X108443000Y-76480116D01*
X108438525Y-76464877D01*
X108437135Y-76463672D01*
X108429452Y-76462001D01*
X107077331Y-76462001D01*
X107070510Y-76462371D01*
X107019648Y-76467895D01*
X107004396Y-76471521D01*
X106883946Y-76516676D01*
X106868351Y-76525214D01*
X106766276Y-76601715D01*
X106753715Y-76614276D01*
X106677214Y-76716351D01*
X106668676Y-76731946D01*
X106623522Y-76852394D01*
X106619895Y-76867649D01*
X106614369Y-76918514D01*
X106614000Y-76925328D01*
X106614000Y-77197885D01*
X105730500Y-77197885D01*
X105730500Y-76921866D01*
X105723745Y-76859684D01*
X105672615Y-76723295D01*
X105585261Y-76606739D01*
X105468705Y-76519385D01*
X105332316Y-76468255D01*
X105270134Y-76461500D01*
X103006957Y-76461500D01*
X102938836Y-76441498D01*
X102892343Y-76387842D01*
X102881647Y-76322330D01*
X102893814Y-76206565D01*
X102894504Y-76200000D01*
X102894316Y-76198214D01*
X102913816Y-76131804D01*
X102930719Y-76110830D01*
X103066144Y-75975405D01*
X103128456Y-75941379D01*
X103155239Y-75938500D01*
X105270134Y-75938500D01*
X105332316Y-75931745D01*
X105468705Y-75880615D01*
X105585261Y-75793261D01*
X105672615Y-75676705D01*
X105723745Y-75540316D01*
X105730500Y-75478134D01*
X105730500Y-75474669D01*
X106614001Y-75474669D01*
X106614371Y-75481490D01*
X106619895Y-75532352D01*
X106623521Y-75547604D01*
X106668676Y-75668054D01*
X106677214Y-75683649D01*
X106753715Y-75785724D01*
X106766276Y-75798285D01*
X106868351Y-75874786D01*
X106883946Y-75883324D01*
X107004394Y-75928478D01*
X107019649Y-75932105D01*
X107070514Y-75937631D01*
X107077328Y-75938000D01*
X108424885Y-75938000D01*
X108440124Y-75933525D01*
X108441329Y-75932135D01*
X108443000Y-75924452D01*
X108443000Y-75919884D01*
X108951000Y-75919884D01*
X108955475Y-75935123D01*
X108956865Y-75936328D01*
X108964548Y-75937999D01*
X110316669Y-75937999D01*
X110323490Y-75937629D01*
X110374352Y-75932105D01*
X110389604Y-75928479D01*
X110510054Y-75883324D01*
X110525649Y-75874786D01*
X110627724Y-75798285D01*
X110640285Y-75785724D01*
X110716786Y-75683649D01*
X110725324Y-75668054D01*
X110770478Y-75547606D01*
X110774105Y-75532351D01*
X110779631Y-75481486D01*
X110780000Y-75474672D01*
X110780000Y-75202115D01*
X110775525Y-75186876D01*
X110774135Y-75185671D01*
X110766452Y-75184000D01*
X108969115Y-75184000D01*
X108953876Y-75188475D01*
X108952671Y-75189865D01*
X108951000Y-75197548D01*
X108951000Y-75919884D01*
X108443000Y-75919884D01*
X108443000Y-75202115D01*
X108438525Y-75186876D01*
X108437135Y-75185671D01*
X108429452Y-75184000D01*
X106632116Y-75184000D01*
X106616877Y-75188475D01*
X106615672Y-75189865D01*
X106614001Y-75197548D01*
X106614001Y-75474669D01*
X105730500Y-75474669D01*
X105730500Y-74649762D01*
X105750502Y-74581641D01*
X105804158Y-74535148D01*
X105874432Y-74525044D01*
X105888786Y-74528382D01*
X105889712Y-74528794D01*
X105896168Y-74530166D01*
X105896167Y-74530166D01*
X106070056Y-74567128D01*
X106070061Y-74567128D01*
X106076513Y-74568500D01*
X106267487Y-74568500D01*
X106273939Y-74567128D01*
X106273944Y-74567128D01*
X106447833Y-74530166D01*
X106447832Y-74530166D01*
X106449809Y-74529746D01*
X106449811Y-74529746D01*
X106454288Y-74528794D01*
X106454462Y-74529613D01*
X106520028Y-74527738D01*
X106580827Y-74564398D01*
X106612154Y-74628110D01*
X106614000Y-74649599D01*
X106614000Y-74657885D01*
X106618475Y-74673124D01*
X106619865Y-74674329D01*
X106627548Y-74676000D01*
X108424885Y-74676000D01*
X108440124Y-74671525D01*
X108441329Y-74670135D01*
X108443000Y-74662452D01*
X108443000Y-74657885D01*
X108951000Y-74657885D01*
X108955475Y-74673124D01*
X108956865Y-74674329D01*
X108964548Y-74676000D01*
X110761884Y-74676000D01*
X110777123Y-74671525D01*
X110778328Y-74670135D01*
X110779999Y-74662452D01*
X110779999Y-74385331D01*
X110779629Y-74378510D01*
X110774105Y-74327648D01*
X110770479Y-74312396D01*
X110725324Y-74191946D01*
X110716786Y-74176351D01*
X110640285Y-74074276D01*
X110627724Y-74061715D01*
X110525649Y-73985214D01*
X110510054Y-73976676D01*
X110389606Y-73931522D01*
X110374351Y-73927895D01*
X110323486Y-73922369D01*
X110316672Y-73922000D01*
X108969115Y-73922000D01*
X108953876Y-73926475D01*
X108952671Y-73927865D01*
X108951000Y-73935548D01*
X108951000Y-74657885D01*
X108443000Y-74657885D01*
X108443000Y-73940116D01*
X108438525Y-73924877D01*
X108437135Y-73923672D01*
X108429452Y-73922001D01*
X107197904Y-73922001D01*
X107129783Y-73901999D01*
X107083290Y-73848343D01*
X107072594Y-73782830D01*
X107084814Y-73666564D01*
X107085504Y-73660000D01*
X107072647Y-73537670D01*
X107085419Y-73467832D01*
X107133921Y-73415985D01*
X107197957Y-73398500D01*
X110320134Y-73398500D01*
X110382316Y-73391745D01*
X110518705Y-73340615D01*
X110635261Y-73253261D01*
X110722615Y-73136705D01*
X110773745Y-73000316D01*
X110780500Y-72938134D01*
X110780500Y-71841866D01*
X110773745Y-71779684D01*
X110722615Y-71643295D01*
X110635261Y-71526739D01*
X110518705Y-71439385D01*
X110382316Y-71388255D01*
X110320134Y-71381500D01*
X107073866Y-71381500D01*
X107011684Y-71388255D01*
X106875295Y-71439385D01*
X106758739Y-71526739D01*
X106671385Y-71643295D01*
X106620255Y-71779684D01*
X106613500Y-71841866D01*
X106613500Y-72670238D01*
X106593498Y-72738359D01*
X106539842Y-72784852D01*
X106469568Y-72794956D01*
X106455214Y-72791618D01*
X106454288Y-72791206D01*
X106424395Y-72784852D01*
X106273944Y-72752872D01*
X106273939Y-72752872D01*
X106267487Y-72751500D01*
X106176239Y-72751500D01*
X106108118Y-72731498D01*
X106087144Y-72714595D01*
X105767405Y-72394856D01*
X105733379Y-72332544D01*
X105730500Y-72305761D01*
X105730500Y-71841866D01*
X105723745Y-71779684D01*
X105672615Y-71643295D01*
X105585261Y-71526739D01*
X105468705Y-71439385D01*
X105332316Y-71388255D01*
X105270134Y-71381500D01*
X102023866Y-71381500D01*
X101961684Y-71388255D01*
X101825295Y-71439385D01*
X101708739Y-71526739D01*
X101621385Y-71643295D01*
X101570255Y-71779684D01*
X101563500Y-71841866D01*
X101563500Y-72938134D01*
X101570255Y-73000316D01*
X101621385Y-73136705D01*
X101708739Y-73253261D01*
X101825295Y-73340615D01*
X101961684Y-73391745D01*
X102023866Y-73398500D01*
X104997761Y-73398500D01*
X105065882Y-73418502D01*
X105086856Y-73435405D01*
X105222281Y-73570830D01*
X105256307Y-73633142D01*
X105258841Y-73656716D01*
X105258496Y-73660000D01*
X105259186Y-73666564D01*
X105259186Y-73666565D01*
X105271353Y-73782330D01*
X105258581Y-73852168D01*
X105210079Y-73904015D01*
X105146043Y-73921500D01*
X102023866Y-73921500D01*
X101961684Y-73928255D01*
X101825295Y-73979385D01*
X101708739Y-74066739D01*
X101621385Y-74183295D01*
X101570255Y-74319684D01*
X101563500Y-74381866D01*
X101563500Y-75316164D01*
X101543498Y-75384285D01*
X101511561Y-75418100D01*
X101424256Y-75481531D01*
X101369747Y-75521134D01*
X101365326Y-75526044D01*
X101365325Y-75526045D01*
X101345912Y-75547606D01*
X101241960Y-75663056D01*
X101146473Y-75828444D01*
X101087458Y-76010072D01*
X101067496Y-76200000D01*
X101087458Y-76389928D01*
X101146473Y-76571556D01*
X101241960Y-76736944D01*
X101246378Y-76741851D01*
X101246379Y-76741852D01*
X101345913Y-76852396D01*
X101369747Y-76878866D01*
X101375089Y-76882747D01*
X101375091Y-76882749D01*
X101511561Y-76981900D01*
X101554915Y-77038122D01*
X101563500Y-77083836D01*
X101563500Y-78018134D01*
X101570255Y-78080316D01*
X101621385Y-78216705D01*
X101708739Y-78333261D01*
X101764070Y-78374729D01*
X101787896Y-78392586D01*
X101830411Y-78449445D01*
X101835437Y-78520264D01*
X101801377Y-78582557D01*
X101744939Y-78615120D01*
X101741344Y-78616083D01*
X101733149Y-78617162D01*
X101585124Y-78678476D01*
X101578573Y-78683503D01*
X101578571Y-78683504D01*
X101504945Y-78740000D01*
X101489928Y-78751523D01*
X101489925Y-78751526D01*
X101458013Y-78776013D01*
X101452983Y-78782568D01*
X101438548Y-78801379D01*
X101427681Y-78813770D01*
X100975766Y-79265685D01*
X100963375Y-79276552D01*
X100938013Y-79296013D01*
X100913526Y-79327925D01*
X100913523Y-79327928D01*
X100913517Y-79327936D01*
X100847512Y-79413955D01*
X100840476Y-79423124D01*
X100779162Y-79571149D01*
X100779162Y-79571150D01*
X100763500Y-79690115D01*
X100763500Y-79690120D01*
X100758250Y-79730000D01*
X100759328Y-79738188D01*
X100762422Y-79761690D01*
X100763500Y-79778136D01*
X100763500Y-89385864D01*
X100762422Y-89402307D01*
X100758250Y-89434000D01*
X100332987Y-89434000D01*
X100325462Y-72429157D01*
X100326961Y-72409725D01*
X100330631Y-72386158D01*
X100329467Y-72377253D01*
X100328101Y-72366804D01*
X100327189Y-72344284D01*
X100341647Y-72050013D01*
X100342859Y-72037708D01*
X100388911Y-71727258D01*
X100390413Y-71717133D01*
X100392824Y-71705010D01*
X100417328Y-71607188D01*
X100458011Y-71444771D01*
X100471570Y-71390643D01*
X100475159Y-71378811D01*
X100584339Y-71073674D01*
X100589071Y-71062250D01*
X100727632Y-70769285D01*
X100733461Y-70758380D01*
X100900072Y-70480407D01*
X100906942Y-70470126D01*
X101099992Y-70209826D01*
X101107836Y-70200268D01*
X101325474Y-69960140D01*
X101334217Y-69951397D01*
X101574336Y-69733763D01*
X101583894Y-69725918D01*
X101844206Y-69532855D01*
X101854487Y-69525986D01*
X101903259Y-69496752D01*
X102132463Y-69359370D01*
X102143344Y-69353553D01*
X102436325Y-69214981D01*
X102447732Y-69210256D01*
X102752885Y-69101066D01*
X102764693Y-69097484D01*
X103079083Y-69018729D01*
X103091201Y-69016319D01*
X103411775Y-68968762D01*
X103424079Y-68967550D01*
X103493066Y-68964160D01*
X103710791Y-68953461D01*
X103736357Y-68954809D01*
X103738795Y-68955188D01*
X103738796Y-68955188D01*
X103747672Y-68956570D01*
X103778568Y-68952529D01*
X103795156Y-68951466D01*
X107408564Y-68959036D01*
G37*
%TD.AperFunction*%
%TD*%
M02*
