%TF.GenerationSoftware,KiCad,Pcbnew,6.0.7-f9a2dced07~116~ubuntu22.04.1*%
%TF.CreationDate,2022-09-09T11:23:20-04:00*%
%TF.ProjectId,cti20-to-arm20-adapter,63746932-302d-4746-9f2d-61726d32302d,rev?*%
%TF.SameCoordinates,Original*%
%TF.FileFunction,Legend,Bot*%
%TF.FilePolarity,Positive*%
%FSLAX46Y46*%
G04 Gerber Fmt 4.6, Leading zero omitted, Abs format (unit mm)*
G04 Created by KiCad (PCBNEW 6.0.7-f9a2dced07~116~ubuntu22.04.1) date 2022-09-09 11:23:20*
%MOMM*%
%LPD*%
G01*
G04 APERTURE LIST*
%ADD10C,0.150000*%
%ADD11C,0.120000*%
G04 APERTURE END LIST*
D10*
X101544380Y-82081904D02*
X100877714Y-82081904D01*
X101068190Y-82081904D02*
X100972952Y-82129523D01*
X100925333Y-82177142D01*
X100877714Y-82272380D01*
X100877714Y-82367619D01*
X101496761Y-83081904D02*
X101544380Y-82986666D01*
X101544380Y-82796190D01*
X101496761Y-82700952D01*
X101401523Y-82653333D01*
X101020571Y-82653333D01*
X100925333Y-82700952D01*
X100877714Y-82796190D01*
X100877714Y-82986666D01*
X100925333Y-83081904D01*
X101020571Y-83129523D01*
X101115809Y-83129523D01*
X101211047Y-82653333D01*
X100877714Y-83462857D02*
X101544380Y-83700952D01*
X100877714Y-83939047D01*
X101544380Y-85605714D02*
X101544380Y-85034285D01*
X101544380Y-85320000D02*
X100544380Y-85320000D01*
X100687238Y-85224761D01*
X100782476Y-85129523D01*
X100830095Y-85034285D01*
D11*
X111091285Y-71825000D02*
X111698428Y-71825000D01*
X111769857Y-71789285D01*
X111805571Y-71753571D01*
X111841285Y-71682142D01*
X111841285Y-71575000D01*
X111805571Y-71503571D01*
X111555571Y-71825000D02*
X111591285Y-71753571D01*
X111591285Y-71610714D01*
X111555571Y-71539285D01*
X111519857Y-71503571D01*
X111448428Y-71467857D01*
X111234142Y-71467857D01*
X111162714Y-71503571D01*
X111127000Y-71539285D01*
X111091285Y-71610714D01*
X111091285Y-71753571D01*
X111127000Y-71825000D01*
X111591285Y-72182142D02*
X111091285Y-72182142D01*
X110841285Y-72182142D02*
X110877000Y-72146428D01*
X110912714Y-72182142D01*
X110877000Y-72217857D01*
X110841285Y-72182142D01*
X110912714Y-72182142D01*
X111091285Y-72432142D02*
X111091285Y-72717857D01*
X110841285Y-72539285D02*
X111484142Y-72539285D01*
X111555571Y-72575000D01*
X111591285Y-72646428D01*
X111591285Y-72717857D01*
X111591285Y-72967857D02*
X110841285Y-72967857D01*
X111591285Y-73289285D02*
X111198428Y-73289285D01*
X111127000Y-73253571D01*
X111091285Y-73182142D01*
X111091285Y-73075000D01*
X111127000Y-73003571D01*
X111162714Y-72967857D01*
X111091285Y-73967857D02*
X111591285Y-73967857D01*
X111091285Y-73646428D02*
X111484142Y-73646428D01*
X111555571Y-73682142D01*
X111591285Y-73753571D01*
X111591285Y-73860714D01*
X111555571Y-73932142D01*
X111519857Y-73967857D01*
X111591285Y-74325000D02*
X110841285Y-74325000D01*
X111127000Y-74325000D02*
X111091285Y-74396428D01*
X111091285Y-74539285D01*
X111127000Y-74610714D01*
X111162714Y-74646428D01*
X111234142Y-74682142D01*
X111448428Y-74682142D01*
X111519857Y-74646428D01*
X111555571Y-74610714D01*
X111591285Y-74539285D01*
X111591285Y-74396428D01*
X111555571Y-74325000D01*
X111519857Y-75003571D02*
X111555571Y-75039285D01*
X111591285Y-75003571D01*
X111555571Y-74967857D01*
X111519857Y-75003571D01*
X111591285Y-75003571D01*
X111555571Y-75682142D02*
X111591285Y-75610714D01*
X111591285Y-75467857D01*
X111555571Y-75396428D01*
X111519857Y-75360714D01*
X111448428Y-75325000D01*
X111234142Y-75325000D01*
X111162714Y-75360714D01*
X111127000Y-75396428D01*
X111091285Y-75467857D01*
X111091285Y-75610714D01*
X111127000Y-75682142D01*
X111591285Y-76110714D02*
X111555571Y-76039285D01*
X111519857Y-76003571D01*
X111448428Y-75967857D01*
X111234142Y-75967857D01*
X111162714Y-76003571D01*
X111127000Y-76039285D01*
X111091285Y-76110714D01*
X111091285Y-76217857D01*
X111127000Y-76289285D01*
X111162714Y-76325000D01*
X111234142Y-76360714D01*
X111448428Y-76360714D01*
X111519857Y-76325000D01*
X111555571Y-76289285D01*
X111591285Y-76217857D01*
X111591285Y-76110714D01*
X111591285Y-76682142D02*
X111091285Y-76682142D01*
X111162714Y-76682142D02*
X111127000Y-76717857D01*
X111091285Y-76789285D01*
X111091285Y-76896428D01*
X111127000Y-76967857D01*
X111198428Y-77003571D01*
X111591285Y-77003571D01*
X111198428Y-77003571D02*
X111127000Y-77039285D01*
X111091285Y-77110714D01*
X111091285Y-77217857D01*
X111127000Y-77289285D01*
X111198428Y-77325000D01*
X111591285Y-77325000D01*
X110805571Y-78217857D02*
X111769857Y-77575000D01*
X111091285Y-78467857D02*
X111591285Y-78467857D01*
X111162714Y-78467857D02*
X111127000Y-78503571D01*
X111091285Y-78575000D01*
X111091285Y-78682142D01*
X111127000Y-78753571D01*
X111198428Y-78789285D01*
X111591285Y-78789285D01*
X111591285Y-79253571D02*
X111555571Y-79182142D01*
X111519857Y-79146428D01*
X111448428Y-79110714D01*
X111234142Y-79110714D01*
X111162714Y-79146428D01*
X111127000Y-79182142D01*
X111091285Y-79253571D01*
X111091285Y-79360714D01*
X111127000Y-79432142D01*
X111162714Y-79467857D01*
X111234142Y-79503571D01*
X111448428Y-79503571D01*
X111519857Y-79467857D01*
X111555571Y-79432142D01*
X111591285Y-79360714D01*
X111591285Y-79253571D01*
X111591285Y-80146428D02*
X111198428Y-80146428D01*
X111127000Y-80110714D01*
X111091285Y-80039285D01*
X111091285Y-79896428D01*
X111127000Y-79825000D01*
X111555571Y-80146428D02*
X111591285Y-80075000D01*
X111591285Y-79896428D01*
X111555571Y-79825000D01*
X111484142Y-79789285D01*
X111412714Y-79789285D01*
X111341285Y-79825000D01*
X111305571Y-79896428D01*
X111305571Y-80075000D01*
X111269857Y-80146428D01*
X111591285Y-80503571D02*
X110841285Y-80503571D01*
X111591285Y-80825000D02*
X111198428Y-80825000D01*
X111127000Y-80789285D01*
X111091285Y-80717857D01*
X111091285Y-80610714D01*
X111127000Y-80539285D01*
X111162714Y-80503571D01*
X111091285Y-81182142D02*
X111841285Y-81182142D01*
X111127000Y-81182142D02*
X111091285Y-81253571D01*
X111091285Y-81396428D01*
X111127000Y-81467857D01*
X111162714Y-81503571D01*
X111234142Y-81539285D01*
X111448428Y-81539285D01*
X111519857Y-81503571D01*
X111555571Y-81467857D01*
X111591285Y-81396428D01*
X111591285Y-81253571D01*
X111555571Y-81182142D01*
X110805571Y-82396428D02*
X111769857Y-81753571D01*
X111555571Y-82967857D02*
X111591285Y-82896428D01*
X111591285Y-82753571D01*
X111555571Y-82682142D01*
X111519857Y-82646428D01*
X111448428Y-82610714D01*
X111234142Y-82610714D01*
X111162714Y-82646428D01*
X111127000Y-82682142D01*
X111091285Y-82753571D01*
X111091285Y-82896428D01*
X111127000Y-82967857D01*
X111091285Y-83182142D02*
X111091285Y-83467857D01*
X110841285Y-83289285D02*
X111484142Y-83289285D01*
X111555571Y-83325000D01*
X111591285Y-83396428D01*
X111591285Y-83467857D01*
X111591285Y-83717857D02*
X111091285Y-83717857D01*
X110841285Y-83717857D02*
X110877000Y-83682142D01*
X110912714Y-83717857D01*
X110877000Y-83753571D01*
X110841285Y-83717857D01*
X110912714Y-83717857D01*
X110912714Y-84039285D02*
X110877000Y-84075000D01*
X110841285Y-84146428D01*
X110841285Y-84325000D01*
X110877000Y-84396428D01*
X110912714Y-84432142D01*
X110984142Y-84467857D01*
X111055571Y-84467857D01*
X111162714Y-84432142D01*
X111591285Y-84003571D01*
X111591285Y-84467857D01*
X110841285Y-84932142D02*
X110841285Y-85003571D01*
X110877000Y-85075000D01*
X110912714Y-85110714D01*
X110984142Y-85146428D01*
X111127000Y-85182142D01*
X111305571Y-85182142D01*
X111448428Y-85146428D01*
X111519857Y-85110714D01*
X111555571Y-85075000D01*
X111591285Y-85003571D01*
X111591285Y-84932142D01*
X111555571Y-84860714D01*
X111519857Y-84825000D01*
X111448428Y-84789285D01*
X111305571Y-84753571D01*
X111127000Y-84753571D01*
X110984142Y-84789285D01*
X110912714Y-84825000D01*
X110877000Y-84860714D01*
X110841285Y-84932142D01*
X111305571Y-85503571D02*
X111305571Y-86075000D01*
X111091285Y-86325000D02*
X111091285Y-86610714D01*
X110841285Y-86432142D02*
X111484142Y-86432142D01*
X111555571Y-86467857D01*
X111591285Y-86539285D01*
X111591285Y-86610714D01*
X111591285Y-86967857D02*
X111555571Y-86896428D01*
X111519857Y-86860714D01*
X111448428Y-86825000D01*
X111234142Y-86825000D01*
X111162714Y-86860714D01*
X111127000Y-86896428D01*
X111091285Y-86967857D01*
X111091285Y-87075000D01*
X111127000Y-87146428D01*
X111162714Y-87182142D01*
X111234142Y-87217857D01*
X111448428Y-87217857D01*
X111519857Y-87182142D01*
X111555571Y-87146428D01*
X111591285Y-87075000D01*
X111591285Y-86967857D01*
X111305571Y-87539285D02*
X111305571Y-88110714D01*
X111591285Y-88789285D02*
X111198428Y-88789285D01*
X111127000Y-88753571D01*
X111091285Y-88682142D01*
X111091285Y-88539285D01*
X111127000Y-88467857D01*
X111555571Y-88789285D02*
X111591285Y-88717857D01*
X111591285Y-88539285D01*
X111555571Y-88467857D01*
X111484142Y-88432142D01*
X111412714Y-88432142D01*
X111341285Y-88467857D01*
X111305571Y-88539285D01*
X111305571Y-88717857D01*
X111269857Y-88789285D01*
X111591285Y-89146428D02*
X111091285Y-89146428D01*
X111234142Y-89146428D02*
X111162714Y-89182142D01*
X111127000Y-89217857D01*
X111091285Y-89289285D01*
X111091285Y-89360714D01*
X111591285Y-89610714D02*
X111091285Y-89610714D01*
X111162714Y-89610714D02*
X111127000Y-89646428D01*
X111091285Y-89717857D01*
X111091285Y-89825000D01*
X111127000Y-89896428D01*
X111198428Y-89932142D01*
X111591285Y-89932142D01*
X111198428Y-89932142D02*
X111127000Y-89967857D01*
X111091285Y-90039285D01*
X111091285Y-90146428D01*
X111127000Y-90217857D01*
X111198428Y-90253571D01*
X111591285Y-90253571D01*
X110912714Y-90575000D02*
X110877000Y-90610714D01*
X110841285Y-90682142D01*
X110841285Y-90860714D01*
X110877000Y-90932142D01*
X110912714Y-90967857D01*
X110984142Y-91003571D01*
X111055571Y-91003571D01*
X111162714Y-90967857D01*
X111591285Y-90539285D01*
X111591285Y-91003571D01*
X110841285Y-91467857D02*
X110841285Y-91539285D01*
X110877000Y-91610714D01*
X110912714Y-91646428D01*
X110984142Y-91682142D01*
X111127000Y-91717857D01*
X111305571Y-91717857D01*
X111448428Y-91682142D01*
X111519857Y-91646428D01*
X111555571Y-91610714D01*
X111591285Y-91539285D01*
X111591285Y-91467857D01*
X111555571Y-91396428D01*
X111519857Y-91360714D01*
X111448428Y-91325000D01*
X111305571Y-91289285D01*
X111127000Y-91289285D01*
X110984142Y-91325000D01*
X110912714Y-91360714D01*
X110877000Y-91396428D01*
X110841285Y-91467857D01*
X111305571Y-92039285D02*
X111305571Y-92610714D01*
X111591285Y-93289285D02*
X111198428Y-93289285D01*
X111127000Y-93253571D01*
X111091285Y-93182142D01*
X111091285Y-93039285D01*
X111127000Y-92967857D01*
X111555571Y-93289285D02*
X111591285Y-93217857D01*
X111591285Y-93039285D01*
X111555571Y-92967857D01*
X111484142Y-92932142D01*
X111412714Y-92932142D01*
X111341285Y-92967857D01*
X111305571Y-93039285D01*
X111305571Y-93217857D01*
X111269857Y-93289285D01*
X111591285Y-93967857D02*
X110841285Y-93967857D01*
X111555571Y-93967857D02*
X111591285Y-93896428D01*
X111591285Y-93753571D01*
X111555571Y-93682142D01*
X111519857Y-93646428D01*
X111448428Y-93610714D01*
X111234142Y-93610714D01*
X111162714Y-93646428D01*
X111127000Y-93682142D01*
X111091285Y-93753571D01*
X111091285Y-93896428D01*
X111127000Y-93967857D01*
X111591285Y-94646428D02*
X111198428Y-94646428D01*
X111127000Y-94610714D01*
X111091285Y-94539285D01*
X111091285Y-94396428D01*
X111127000Y-94325000D01*
X111555571Y-94646428D02*
X111591285Y-94575000D01*
X111591285Y-94396428D01*
X111555571Y-94325000D01*
X111484142Y-94289285D01*
X111412714Y-94289285D01*
X111341285Y-94325000D01*
X111305571Y-94396428D01*
X111305571Y-94575000D01*
X111269857Y-94646428D01*
X111091285Y-95003571D02*
X111841285Y-95003571D01*
X111127000Y-95003571D02*
X111091285Y-95075000D01*
X111091285Y-95217857D01*
X111127000Y-95289285D01*
X111162714Y-95325000D01*
X111234142Y-95360714D01*
X111448428Y-95360714D01*
X111519857Y-95325000D01*
X111555571Y-95289285D01*
X111591285Y-95217857D01*
X111591285Y-95075000D01*
X111555571Y-95003571D01*
X111091285Y-95575000D02*
X111091285Y-95860714D01*
X110841285Y-95682142D02*
X111484142Y-95682142D01*
X111555571Y-95717857D01*
X111591285Y-95789285D01*
X111591285Y-95860714D01*
X111555571Y-96396428D02*
X111591285Y-96325000D01*
X111591285Y-96182142D01*
X111555571Y-96110714D01*
X111484142Y-96075000D01*
X111198428Y-96075000D01*
X111127000Y-96110714D01*
X111091285Y-96182142D01*
X111091285Y-96325000D01*
X111127000Y-96396428D01*
X111198428Y-96432142D01*
X111269857Y-96432142D01*
X111341285Y-96075000D01*
X111591285Y-96753571D02*
X111091285Y-96753571D01*
X111234142Y-96753571D02*
X111162714Y-96789285D01*
X111127000Y-96825000D01*
X111091285Y-96896428D01*
X111091285Y-96967857D01*
D10*
%TO.C,J2*%
X106505333Y-91122380D02*
X106505333Y-91836666D01*
X106552952Y-91979523D01*
X106648190Y-92074761D01*
X106791047Y-92122380D01*
X106886285Y-92122380D01*
X106076761Y-91217619D02*
X106029142Y-91170000D01*
X105933904Y-91122380D01*
X105695809Y-91122380D01*
X105600571Y-91170000D01*
X105552952Y-91217619D01*
X105505333Y-91312857D01*
X105505333Y-91408095D01*
X105552952Y-91550952D01*
X106124380Y-92122380D01*
X105505333Y-92122380D01*
D11*
X104842000Y-90230000D02*
X104842000Y-90170000D01*
X104842000Y-90230000D02*
X107502000Y-90230000D01*
X104842000Y-77410000D02*
X107502000Y-77410000D01*
X107502000Y-77470000D02*
X107502000Y-77410000D01*
X104842000Y-77470000D02*
X104842000Y-77410000D01*
X107502000Y-90230000D02*
X107502000Y-90170000D01*
X107502000Y-90170000D02*
X108962000Y-90170000D01*
%TD*%
M02*
