%TF.GenerationSoftware,KiCad,Pcbnew,6.0.7-f9a2dced07~116~ubuntu22.04.1*%
%TF.CreationDate,2022-09-09T11:06:50-04:00*%
%TF.ProjectId,cti20-to-arm20-adapter,63746932-302d-4746-9f2d-61726d32302d,rev?*%
%TF.SameCoordinates,Original*%
%TF.FileFunction,Copper,L2,Bot*%
%TF.FilePolarity,Positive*%
%FSLAX46Y46*%
G04 Gerber Fmt 4.6, Leading zero omitted, Abs format (unit mm)*
G04 Created by KiCad (PCBNEW 6.0.7-f9a2dced07~116~ubuntu22.04.1) date 2022-09-09 11:06:50*
%MOMM*%
%LPD*%
G01*
G04 APERTURE LIST*
%TA.AperFunction,SMDPad,CuDef*%
%ADD10R,2.100000X0.750000*%
%TD*%
%TA.AperFunction,ViaPad*%
%ADD11C,0.800000*%
%TD*%
%TA.AperFunction,Conductor*%
%ADD12C,0.200000*%
%TD*%
G04 APERTURE END LIST*
D10*
%TO.P,J2,1,Pin_1*%
%TO.N,/TMS*%
X107972000Y-89535000D03*
%TO.P,J2,2,Pin_2*%
%TO.N,/TRST_N*%
X104372000Y-89535000D03*
%TO.P,J2,3,Pin_3*%
%TO.N,/TDI*%
X107972000Y-88265000D03*
%TO.P,J2,4,Pin_4*%
%TO.N,GND*%
X104372000Y-88265000D03*
%TO.P,J2,5,Pin_5*%
%TO.N,/VDD*%
X107972000Y-86995000D03*
%TO.P,J2,6,Pin_6*%
%TO.N,unconnected-(J2-Pad6)*%
X104372000Y-86995000D03*
%TO.P,J2,7,Pin_7*%
%TO.N,/TDO*%
X107972000Y-85725000D03*
%TO.P,J2,8,Pin_8*%
%TO.N,GND*%
X104372000Y-85725000D03*
%TO.P,J2,9,Pin_9*%
%TO.N,/RTCK*%
X107972000Y-84455000D03*
%TO.P,J2,10,Pin_10*%
%TO.N,GND*%
X104372000Y-84455000D03*
%TO.P,J2,11,Pin_11*%
%TO.N,/TCK*%
X107972000Y-83185000D03*
%TO.P,J2,12,Pin_12*%
%TO.N,GND*%
X104372000Y-83185000D03*
%TO.P,J2,13,Pin_13*%
%TO.N,unconnected-(J2-Pad13)*%
X107972000Y-81915000D03*
%TO.P,J2,14,Pin_14*%
%TO.N,unconnected-(J2-Pad14)*%
X104372000Y-81915000D03*
%TO.P,J2,15,Pin_15*%
%TO.N,/SRST_N*%
X107972000Y-80645000D03*
%TO.P,J2,16,Pin_16*%
%TO.N,GND*%
X104372000Y-80645000D03*
%TO.P,J2,17,Pin_17*%
%TO.N,unconnected-(J2-Pad17)*%
X107972000Y-79375000D03*
%TO.P,J2,18,Pin_18*%
%TO.N,unconnected-(J2-Pad18)*%
X104372000Y-79375000D03*
%TO.P,J2,19,Pin_19*%
%TO.N,unconnected-(J2-Pad19)*%
X107972000Y-78105000D03*
%TO.P,J2,20,Pin_20*%
%TO.N,GND*%
X104372000Y-78105000D03*
%TD*%
D11*
%TO.N,/TDI*%
X110490000Y-78740000D03*
%TO.N,/VDD*%
X106172000Y-73660000D03*
%TO.N,/SRST_N*%
X106172000Y-80010000D03*
%TO.N,/TMS*%
X106172000Y-88900000D03*
%TO.N,/TRST_N*%
X101981000Y-76200000D03*
%TO.N,/TCK*%
X106172000Y-82550000D03*
%TO.N,/RTCK*%
X106172000Y-85090000D03*
%TO.N,/TDO*%
X106172000Y-87630000D03*
%TD*%
D12*
%TO.N,GND*%
X104372000Y-78105000D02*
X103697000Y-78105000D01*
X103697000Y-78105000D02*
X102997000Y-78805000D01*
X102997000Y-78805000D02*
X102997000Y-79945000D01*
X102997000Y-79945000D02*
X103697000Y-80645000D01*
X103697000Y-80645000D02*
X104372000Y-80645000D01*
X104372000Y-83185000D02*
X103697000Y-83185000D01*
X103697000Y-83185000D02*
X103022000Y-82510000D01*
X103022000Y-82510000D02*
X103022000Y-80874000D01*
X103022000Y-80874000D02*
X103251000Y-80645000D01*
X103251000Y-80645000D02*
X104372000Y-80645000D01*
X104372000Y-88265000D02*
X103697000Y-88265000D01*
X102997000Y-87565000D02*
X102997000Y-86425000D01*
X103697000Y-88265000D02*
X102997000Y-87565000D01*
X102997000Y-86425000D02*
X103697000Y-85725000D01*
X103697000Y-85725000D02*
X104372000Y-85725000D01*
%TO.N,/TDI*%
X110490000Y-86422000D02*
X110490000Y-78740000D01*
X108647000Y-88265000D02*
X110490000Y-86422000D01*
X107972000Y-88265000D02*
X108647000Y-88265000D01*
%TO.N,/VDD*%
X109322000Y-76810000D02*
X106172000Y-73660000D01*
X109322000Y-86400000D02*
X109322000Y-76810000D01*
X108727000Y-86995000D02*
X109322000Y-86400000D01*
X107972000Y-86995000D02*
X108727000Y-86995000D01*
%TO.N,/SRST_N*%
X106807000Y-80645000D02*
X106172000Y-80010000D01*
X107972000Y-80645000D02*
X106807000Y-80645000D01*
%TO.N,/TMS*%
X106807000Y-89535000D02*
X106172000Y-88900000D01*
X107972000Y-89535000D02*
X106807000Y-89535000D01*
%TO.N,/TRST_N*%
X101981000Y-87819000D02*
X101981000Y-76200000D01*
X103697000Y-89535000D02*
X101981000Y-87819000D01*
X104372000Y-89535000D02*
X103697000Y-89535000D01*
%TO.N,/TCK*%
X106807000Y-83185000D02*
X106172000Y-82550000D01*
%TO.N,/RTCK*%
X106807000Y-84455000D02*
X106172000Y-85090000D01*
%TO.N,/TCK*%
X107972000Y-83185000D02*
X106807000Y-83185000D01*
%TO.N,/RTCK*%
X107972000Y-84455000D02*
X106807000Y-84455000D01*
%TO.N,/TDO*%
X107297000Y-85725000D02*
X106172000Y-86850000D01*
X106172000Y-86850000D02*
X106172000Y-87630000D01*
X107972000Y-85725000D02*
X107297000Y-85725000D01*
%TD*%
%TA.AperFunction,Conductor*%
%TO.N,GND*%
G36*
X107408564Y-68959036D02*
G01*
X108535235Y-68961397D01*
X108554354Y-68962897D01*
X108561048Y-68963939D01*
X108578724Y-68966691D01*
X108598079Y-68964160D01*
X108620594Y-68963248D01*
X108914876Y-68977706D01*
X108927170Y-68978916D01*
X109247751Y-69026471D01*
X109259857Y-69028878D01*
X109574233Y-69107625D01*
X109586065Y-69111214D01*
X109891202Y-69220394D01*
X109902626Y-69225126D01*
X109941606Y-69243562D01*
X110195594Y-69363689D01*
X110206495Y-69369516D01*
X110484467Y-69536126D01*
X110494742Y-69542992D01*
X110751966Y-69733763D01*
X110755046Y-69736047D01*
X110764603Y-69743891D01*
X111004729Y-69961527D01*
X111013473Y-69970271D01*
X111231109Y-70210397D01*
X111238951Y-70219951D01*
X111424495Y-70470126D01*
X111432004Y-70480251D01*
X111438874Y-70490533D01*
X111602599Y-70763691D01*
X111605484Y-70768505D01*
X111611311Y-70779406D01*
X111673510Y-70910916D01*
X111749874Y-71072374D01*
X111754606Y-71083798D01*
X111863786Y-71388935D01*
X111867375Y-71400765D01*
X111946122Y-71715143D01*
X111948531Y-71727258D01*
X111996083Y-72047825D01*
X111997294Y-72060124D01*
X112011255Y-72344284D01*
X112011390Y-72347034D01*
X112010042Y-72372598D01*
X112008309Y-72383724D01*
X112009474Y-72392630D01*
X112012436Y-72415283D01*
X112013500Y-72431621D01*
X112013500Y-95200633D01*
X112012000Y-95220018D01*
X112009690Y-95234851D01*
X112009690Y-95234855D01*
X112008309Y-95243724D01*
X112010840Y-95263079D01*
X112011752Y-95285594D01*
X111997295Y-95579867D01*
X111997295Y-95579870D01*
X111996084Y-95592170D01*
X111948532Y-95912738D01*
X111948531Y-95912742D01*
X111946122Y-95924857D01*
X111867377Y-96239226D01*
X111867375Y-96239233D01*
X111863786Y-96251065D01*
X111754606Y-96556202D01*
X111749874Y-96567626D01*
X111653261Y-96771899D01*
X111611313Y-96860590D01*
X111605484Y-96871495D01*
X111438874Y-97149467D01*
X111432004Y-97159749D01*
X111238953Y-97420046D01*
X111231109Y-97429603D01*
X111013473Y-97669729D01*
X111004729Y-97678473D01*
X110764603Y-97896109D01*
X110755049Y-97903951D01*
X110494742Y-98097008D01*
X110484467Y-98103874D01*
X110206495Y-98270484D01*
X110195594Y-98276311D01*
X110064084Y-98338510D01*
X109902626Y-98414874D01*
X109891202Y-98419606D01*
X109586065Y-98528786D01*
X109574235Y-98532375D01*
X109259857Y-98611122D01*
X109247751Y-98613529D01*
X108927170Y-98661084D01*
X108914876Y-98662294D01*
X108627962Y-98676390D01*
X108602402Y-98675042D01*
X108591276Y-98673309D01*
X108559714Y-98677436D01*
X108543379Y-98678500D01*
X103813432Y-98678500D01*
X103794046Y-98677000D01*
X103779212Y-98674690D01*
X103779211Y-98674690D01*
X103770342Y-98673309D01*
X103761439Y-98674473D01*
X103761438Y-98674473D01*
X103750990Y-98675839D01*
X103728473Y-98676751D01*
X103434196Y-98662292D01*
X103421898Y-98661080D01*
X103181860Y-98625472D01*
X103101332Y-98613526D01*
X103089204Y-98611114D01*
X102774831Y-98532364D01*
X102762999Y-98528774D01*
X102570651Y-98459950D01*
X102457870Y-98419595D01*
X102446456Y-98414867D01*
X102153514Y-98276313D01*
X102153491Y-98276302D01*
X102142586Y-98270473D01*
X101864624Y-98103867D01*
X101854343Y-98096998D01*
X101594055Y-97903953D01*
X101594034Y-97903937D01*
X101584488Y-97896103D01*
X101344353Y-97678456D01*
X101335611Y-97669713D01*
X101117981Y-97429592D01*
X101110137Y-97420034D01*
X100917086Y-97159733D01*
X100910216Y-97149451D01*
X100743614Y-96871489D01*
X100737785Y-96860585D01*
X100599223Y-96567618D01*
X100594491Y-96556194D01*
X100485312Y-96251059D01*
X100481723Y-96239226D01*
X100402981Y-95924865D01*
X100400569Y-95912738D01*
X100359788Y-95637818D01*
X100353016Y-95592168D01*
X100351805Y-95579867D01*
X100337886Y-95296517D01*
X100339479Y-95269439D01*
X100339829Y-95267355D01*
X100340637Y-95262552D01*
X100340790Y-95250000D01*
X100336813Y-95222230D01*
X100335540Y-95204425D01*
X100333310Y-90163891D01*
X100327131Y-76200000D01*
X101067496Y-76200000D01*
X101068186Y-76206565D01*
X101083950Y-76356548D01*
X101087458Y-76389928D01*
X101146473Y-76571556D01*
X101241960Y-76736944D01*
X101246378Y-76741851D01*
X101246379Y-76741852D01*
X101340136Y-76845980D01*
X101370854Y-76909987D01*
X101372500Y-76930290D01*
X101372500Y-87770864D01*
X101371422Y-87787307D01*
X101367250Y-87819000D01*
X101372500Y-87858880D01*
X101372500Y-87858885D01*
X101385565Y-87958124D01*
X101388162Y-87977851D01*
X101449476Y-88125876D01*
X101454503Y-88132427D01*
X101454504Y-88132429D01*
X101522520Y-88221069D01*
X101522526Y-88221075D01*
X101547013Y-88252987D01*
X101553568Y-88258017D01*
X101572379Y-88272452D01*
X101584770Y-88283319D01*
X102776595Y-89475144D01*
X102810621Y-89537456D01*
X102813500Y-89564239D01*
X102813500Y-89958134D01*
X102820255Y-90020316D01*
X102871385Y-90156705D01*
X102958739Y-90273261D01*
X103075295Y-90360615D01*
X103211684Y-90411745D01*
X103273866Y-90418500D01*
X105470134Y-90418500D01*
X105532316Y-90411745D01*
X105668705Y-90360615D01*
X105785261Y-90273261D01*
X105872615Y-90156705D01*
X105923745Y-90020316D01*
X105930500Y-89958134D01*
X105930500Y-89932397D01*
X105950502Y-89864276D01*
X106004158Y-89817783D01*
X106069668Y-89807087D01*
X106070058Y-89807128D01*
X106076513Y-89808500D01*
X106167761Y-89808500D01*
X106235882Y-89828502D01*
X106256856Y-89845405D01*
X106342685Y-89931234D01*
X106353552Y-89943625D01*
X106373013Y-89968987D01*
X106383702Y-89977189D01*
X106424981Y-90032921D01*
X106471385Y-90156705D01*
X106558739Y-90273261D01*
X106675295Y-90360615D01*
X106811684Y-90411745D01*
X106873866Y-90418500D01*
X109070134Y-90418500D01*
X109132316Y-90411745D01*
X109268705Y-90360615D01*
X109385261Y-90273261D01*
X109472615Y-90156705D01*
X109523745Y-90020316D01*
X109530500Y-89958134D01*
X109530500Y-89111866D01*
X109523745Y-89049684D01*
X109484212Y-88944230D01*
X109479029Y-88873422D01*
X109484212Y-88855770D01*
X109520971Y-88757715D01*
X109523745Y-88750316D01*
X109530500Y-88688134D01*
X109530500Y-88294239D01*
X109550502Y-88226118D01*
X109567405Y-88205144D01*
X110886234Y-86886315D01*
X110898625Y-86875448D01*
X110917437Y-86861013D01*
X110923987Y-86855987D01*
X110948474Y-86824075D01*
X110948478Y-86824071D01*
X111021524Y-86728876D01*
X111082838Y-86580851D01*
X111103751Y-86422000D01*
X111099578Y-86390301D01*
X111098500Y-86373856D01*
X111098500Y-79470290D01*
X111118502Y-79402169D01*
X111130864Y-79385980D01*
X111224621Y-79281852D01*
X111224622Y-79281851D01*
X111229040Y-79276944D01*
X111324527Y-79111556D01*
X111383542Y-78929928D01*
X111384517Y-78920657D01*
X111402814Y-78746565D01*
X111403504Y-78740000D01*
X111398855Y-78695770D01*
X111384232Y-78556635D01*
X111384232Y-78556633D01*
X111383542Y-78550072D01*
X111324527Y-78368444D01*
X111319075Y-78359000D01*
X111232341Y-78208774D01*
X111229040Y-78203056D01*
X111101253Y-78061134D01*
X110946752Y-77948882D01*
X110940724Y-77946198D01*
X110940722Y-77946197D01*
X110778319Y-77873891D01*
X110778318Y-77873891D01*
X110772288Y-77871206D01*
X110677227Y-77851000D01*
X110591944Y-77832872D01*
X110591939Y-77832872D01*
X110585487Y-77831500D01*
X110394513Y-77831500D01*
X110388061Y-77832872D01*
X110388056Y-77832872D01*
X110302773Y-77851000D01*
X110207712Y-77871206D01*
X110201685Y-77873889D01*
X110201677Y-77873892D01*
X110107748Y-77915712D01*
X110037381Y-77925146D01*
X109973084Y-77895039D01*
X109935271Y-77834950D01*
X109930500Y-77800605D01*
X109930500Y-76858136D01*
X109931578Y-76841690D01*
X109934672Y-76818188D01*
X109935750Y-76810000D01*
X109930500Y-76770120D01*
X109930500Y-76770115D01*
X109914838Y-76651150D01*
X109866770Y-76535103D01*
X109853524Y-76503124D01*
X109780478Y-76407929D01*
X109780474Y-76407925D01*
X109771482Y-76396206D01*
X109761016Y-76382566D01*
X109761013Y-76382563D01*
X109755987Y-76376013D01*
X109749432Y-76370983D01*
X109730621Y-76356548D01*
X109718230Y-76345681D01*
X107121719Y-73749170D01*
X107087693Y-73686858D01*
X107085159Y-73663284D01*
X107085504Y-73660000D01*
X107065542Y-73470072D01*
X107006527Y-73288444D01*
X106911040Y-73123056D01*
X106783253Y-72981134D01*
X106628752Y-72868882D01*
X106622724Y-72866198D01*
X106622722Y-72866197D01*
X106460319Y-72793891D01*
X106460318Y-72793891D01*
X106454288Y-72791206D01*
X106360887Y-72771353D01*
X106273944Y-72752872D01*
X106273939Y-72752872D01*
X106267487Y-72751500D01*
X106076513Y-72751500D01*
X106070061Y-72752872D01*
X106070056Y-72752872D01*
X105983113Y-72771353D01*
X105889712Y-72791206D01*
X105883682Y-72793891D01*
X105883681Y-72793891D01*
X105721278Y-72866197D01*
X105721276Y-72866198D01*
X105715248Y-72868882D01*
X105560747Y-72981134D01*
X105432960Y-73123056D01*
X105337473Y-73288444D01*
X105278458Y-73470072D01*
X105258496Y-73660000D01*
X105278458Y-73849928D01*
X105337473Y-74031556D01*
X105432960Y-74196944D01*
X105560747Y-74338866D01*
X105715248Y-74451118D01*
X105721276Y-74453802D01*
X105721278Y-74453803D01*
X105883681Y-74526109D01*
X105889712Y-74528794D01*
X105983113Y-74548647D01*
X106070056Y-74567128D01*
X106070061Y-74567128D01*
X106076513Y-74568500D01*
X106167761Y-74568500D01*
X106235882Y-74588502D01*
X106256856Y-74605405D01*
X108657856Y-77006405D01*
X108691882Y-77068717D01*
X108686817Y-77139532D01*
X108644270Y-77196368D01*
X108577750Y-77221179D01*
X108568761Y-77221500D01*
X106873866Y-77221500D01*
X106811684Y-77228255D01*
X106675295Y-77279385D01*
X106558739Y-77366739D01*
X106471385Y-77483295D01*
X106420255Y-77619684D01*
X106413500Y-77681866D01*
X106413500Y-78528134D01*
X106420255Y-78590316D01*
X106423029Y-78597715D01*
X106459788Y-78695770D01*
X106464971Y-78766578D01*
X106459788Y-78784230D01*
X106420255Y-78889684D01*
X106413500Y-78951866D01*
X106413500Y-78977603D01*
X106393498Y-79045724D01*
X106339842Y-79092217D01*
X106274332Y-79102913D01*
X106273942Y-79102872D01*
X106267487Y-79101500D01*
X106076513Y-79101500D01*
X106070058Y-79102872D01*
X106069668Y-79102913D01*
X105999830Y-79090140D01*
X105947984Y-79041637D01*
X105930500Y-78977603D01*
X105930500Y-78951866D01*
X105923745Y-78889684D01*
X105883945Y-78783518D01*
X105878762Y-78712710D01*
X105883945Y-78695058D01*
X105920478Y-78597606D01*
X105924105Y-78582351D01*
X105929631Y-78531486D01*
X105930000Y-78524672D01*
X105930000Y-78377115D01*
X105925525Y-78361876D01*
X105924135Y-78360671D01*
X105916452Y-78359000D01*
X104244000Y-78359000D01*
X104175879Y-78338998D01*
X104129386Y-78285342D01*
X104118000Y-78233000D01*
X104118000Y-77832885D01*
X104626000Y-77832885D01*
X104630475Y-77848124D01*
X104631865Y-77849329D01*
X104639548Y-77851000D01*
X105911884Y-77851000D01*
X105927123Y-77846525D01*
X105928328Y-77845135D01*
X105929999Y-77837452D01*
X105929999Y-77685331D01*
X105929629Y-77678510D01*
X105924105Y-77627648D01*
X105920479Y-77612396D01*
X105875324Y-77491946D01*
X105866786Y-77476351D01*
X105790285Y-77374276D01*
X105777724Y-77361715D01*
X105675649Y-77285214D01*
X105660054Y-77276676D01*
X105539606Y-77231522D01*
X105524351Y-77227895D01*
X105473486Y-77222369D01*
X105466672Y-77222000D01*
X104644115Y-77222000D01*
X104628876Y-77226475D01*
X104627671Y-77227865D01*
X104626000Y-77235548D01*
X104626000Y-77832885D01*
X104118000Y-77832885D01*
X104118000Y-77240116D01*
X104113525Y-77224877D01*
X104112135Y-77223672D01*
X104104452Y-77222001D01*
X103277331Y-77222001D01*
X103270510Y-77222371D01*
X103219648Y-77227895D01*
X103204396Y-77231521D01*
X103083946Y-77276676D01*
X103068351Y-77285214D01*
X102966276Y-77361715D01*
X102953715Y-77374276D01*
X102877214Y-77476351D01*
X102868676Y-77491946D01*
X102833482Y-77585825D01*
X102790840Y-77642589D01*
X102724279Y-77667289D01*
X102654930Y-77652081D01*
X102604812Y-77601795D01*
X102589500Y-77541595D01*
X102589500Y-76930290D01*
X102609502Y-76862169D01*
X102621864Y-76845980D01*
X102715621Y-76741852D01*
X102715622Y-76741851D01*
X102720040Y-76736944D01*
X102815527Y-76571556D01*
X102874542Y-76389928D01*
X102878051Y-76356548D01*
X102893814Y-76206565D01*
X102894504Y-76200000D01*
X102874542Y-76010072D01*
X102815527Y-75828444D01*
X102720040Y-75663056D01*
X102592253Y-75521134D01*
X102437752Y-75408882D01*
X102431724Y-75406198D01*
X102431722Y-75406197D01*
X102269319Y-75333891D01*
X102269318Y-75333891D01*
X102263288Y-75331206D01*
X102169887Y-75311353D01*
X102082944Y-75292872D01*
X102082939Y-75292872D01*
X102076487Y-75291500D01*
X101885513Y-75291500D01*
X101879061Y-75292872D01*
X101879056Y-75292872D01*
X101792113Y-75311353D01*
X101698712Y-75331206D01*
X101692682Y-75333891D01*
X101692681Y-75333891D01*
X101530278Y-75406197D01*
X101530276Y-75406198D01*
X101524248Y-75408882D01*
X101369747Y-75521134D01*
X101241960Y-75663056D01*
X101146473Y-75828444D01*
X101087458Y-76010072D01*
X101067496Y-76200000D01*
X100327131Y-76200000D01*
X100325462Y-72429157D01*
X100326961Y-72409725D01*
X100330631Y-72386158D01*
X100329467Y-72377253D01*
X100328101Y-72366804D01*
X100327189Y-72344284D01*
X100341647Y-72050013D01*
X100342859Y-72037708D01*
X100388911Y-71727258D01*
X100390413Y-71717133D01*
X100392824Y-71705010D01*
X100417328Y-71607188D01*
X100471570Y-71390643D01*
X100475159Y-71378811D01*
X100584339Y-71073674D01*
X100589071Y-71062250D01*
X100727632Y-70769285D01*
X100733461Y-70758380D01*
X100900072Y-70480407D01*
X100906942Y-70470126D01*
X101099992Y-70209826D01*
X101107836Y-70200268D01*
X101325474Y-69960140D01*
X101334217Y-69951397D01*
X101574336Y-69733763D01*
X101583894Y-69725918D01*
X101844206Y-69532855D01*
X101854487Y-69525986D01*
X101903259Y-69496752D01*
X102132463Y-69359370D01*
X102143344Y-69353553D01*
X102436325Y-69214981D01*
X102447732Y-69210256D01*
X102752885Y-69101066D01*
X102764693Y-69097484D01*
X103079083Y-69018729D01*
X103091201Y-69016319D01*
X103411775Y-68968762D01*
X103424079Y-68967550D01*
X103493066Y-68964160D01*
X103710791Y-68953461D01*
X103736357Y-68954809D01*
X103738795Y-68955188D01*
X103738796Y-68955188D01*
X103747672Y-68956570D01*
X103778568Y-68952529D01*
X103795156Y-68951466D01*
X107408564Y-68959036D01*
G37*
%TD.AperFunction*%
%TA.AperFunction,Conductor*%
G36*
X104568121Y-82951002D02*
G01*
X104614614Y-83004658D01*
X104626000Y-83057000D01*
X104626000Y-85853000D01*
X104605998Y-85921121D01*
X104552342Y-85967614D01*
X104500000Y-85979000D01*
X104244000Y-85979000D01*
X104175879Y-85958998D01*
X104129386Y-85905342D01*
X104118000Y-85853000D01*
X104118000Y-83057000D01*
X104138002Y-82988879D01*
X104191658Y-82942386D01*
X104244000Y-82931000D01*
X104500000Y-82931000D01*
X104568121Y-82951002D01*
G37*
%TD.AperFunction*%
%TD*%
M02*
